<svg width="26" height="27" viewBox="0 0 26 27" fill="none" xmlns="http://www.w3.org/2000/svg">
<mask id="mask0_9_16" style="mask-type:alpha" maskUnits="userSpaceOnUse" x="0" y="0" width="26" height="27">
<rect width="26" height="26" transform="matrix(-1 0 0 1 26 0.5)" fill="#D9D9D9"/>
</mask>
<g mask="url(#mask0_9_16)">
<path d="M17.3334 12.2917C17.0681 12.2917 16.8421 12.1983 16.6553 12.0115C16.4685 11.8247 16.3751 11.5987 16.3751 11.3334C16.3751 11.0681 16.4685 10.8421 16.6553 10.6553C16.8421 10.4685 17.0681 10.3751 17.3334 10.3751C17.5987 10.3751 17.8247 10.4685 18.0115 10.6553C18.1983 10.8421 18.2917 11.0681 18.2917 11.3334C18.2917 11.5987 18.1983 11.8247 18.0115 12.0115C17.8247 12.1983 17.5987 12.2917 17.3334 12.2917ZM13 12.2917C12.7348 12.2917 12.5087 12.1983 12.3219 12.0115C12.1351 11.8247 12.0417 11.5987 12.0417 11.3334C12.0417 11.0681 12.1351 10.8421 12.3219 10.6553C12.5087 10.4685 12.7348 10.3751 13 10.3751C13.2653 10.3751 13.4914 10.4685 13.6782 10.6553C13.865 10.8421 13.9584 11.0681 13.9584 11.3334C13.9584 11.5987 13.865 11.8247 13.6782 12.0115C13.4914 12.1983 13.2653 12.2917 13 12.2917ZM8.66671 12.2917C8.40144 12.2917 8.1754 12.1983 7.9886 12.0115C7.8018 11.8247 7.7084 11.5987 7.7084 11.3334C7.7084 11.0681 7.8018 10.8421 7.9886 10.6553C8.1754 10.4685 8.40144 10.3751 8.66671 10.3751C8.93198 10.3751 9.15802 10.4685 9.34482 10.6553C9.53163 10.8421 9.62503 11.0681 9.62503 11.3334C9.62503 11.5987 9.53163 11.8247 9.34482 12.0115C9.15802 12.1983 8.93198 12.2917 8.66671 12.2917ZM23.2917 23.2916V5.16675C23.2917 4.61952 23.1021 4.15632 22.7229 3.77715C22.3438 3.39799 21.8806 3.2084 21.3333 3.2084H4.66675C4.11952 3.2084 3.65632 3.39799 3.27715 3.77715C2.89799 4.15632 2.7084 4.61952 2.7084 5.16675V17.5C2.7084 18.0472 2.89799 18.5104 3.27715 18.8896C3.65632 19.2688 4.11952 19.4584 4.66675 19.4584H19.4584L23.2917 23.2916ZM20.15 17.8334H4.66675C4.5834 17.8334 4.507 17.7987 4.43754 17.7292C4.3681 17.6598 4.33338 17.5834 4.33338 17.5V5.16675C4.33338 5.0834 4.3681 5.007 4.43754 4.93754C4.507 4.8681 4.5834 4.83338 4.66675 4.83338H21.3333C21.4167 4.83338 21.4931 4.8681 21.5626 4.93754C21.632 5.007 21.6667 5.0834 21.6667 5.16675V19.3334L20.15 17.8334Z" fill="white"/>
</g>
</svg>
