<svg width="43" height="43" viewBox="0 0 43 43" fill="none" xmlns="http://www.w3.org/2000/svg">
<mask id="mask0_9_76" style="mask-type:alpha" maskUnits="userSpaceOnUse" x="0" y="0" width="43" height="43">
<rect x="0.5" y="0.5" width="42" height="42" fill="#D9D9D9"/>
</mask>
<g mask="url(#mask0_9_76)">
<path d="M21.4462 24.1361C19.3801 24.1361 17.6113 23.4139 16.1399 21.9695C14.6686 20.5251 13.9329 18.7887 13.9329 16.7604C13.9329 14.732 14.6686 12.9956 16.1399 11.5512C17.6113 10.1068 19.3801 9.38458 21.4462 9.38458C23.5123 9.38458 25.2811 10.1068 26.7524 11.5512C28.2238 12.9956 28.9595 14.732 28.9595 16.7604C28.9595 18.7887 28.2238 20.5251 26.7524 21.9695C25.2811 23.4139 23.5123 24.1361 21.4462 24.1361ZM5.34619 40.1846V35.4998C5.34619 34.4677 5.63173 33.512 6.20282 32.6326C6.77387 31.7532 7.53689 31.077 8.49187 30.6042C10.6138 29.583 12.7543 28.817 14.9133 28.3064C17.0724 27.7958 19.25 27.5405 21.4462 27.5405C23.6424 27.5405 25.82 27.7958 27.9791 28.3064C30.1381 28.817 32.2786 29.583 34.4005 30.6042C35.3555 31.077 36.1185 31.7532 36.6896 32.6326C37.2606 33.512 37.5462 34.4677 37.5462 35.4998V40.1846H5.34619ZM8.56615 37.0236H34.3262V35.4998C34.3262 35.0729 34.2003 34.6778 33.9485 34.3144C33.6967 33.951 33.3547 33.6545 32.9226 33.4248C31.0732 32.5305 29.1874 31.8531 27.2652 31.3924C25.343 30.9317 23.4033 30.7014 21.4462 30.7014C19.4891 30.7014 17.5494 30.9317 15.6272 31.3924C13.705 31.8531 11.8192 32.5305 9.96975 33.4248C9.53766 33.6545 9.19571 33.951 8.94391 34.3144C8.69207 34.6778 8.56615 35.0729 8.56615 35.4998V37.0236ZM21.4462 20.9751C22.6269 20.9751 23.6376 20.5624 24.4784 19.737C25.3191 18.9116 25.7395 17.9194 25.7395 16.7604C25.7395 15.6013 25.3191 14.6091 24.4784 13.7837C23.6376 12.9583 22.6269 12.5456 21.4462 12.5456C20.2655 12.5456 19.2548 12.9583 18.414 13.7837C17.5732 14.6091 17.1528 15.6013 17.1528 16.7604C17.1528 17.9194 17.5732 18.9116 18.414 19.737C19.2548 20.5624 20.2655 20.9751 21.4462 20.9751Z" fill="white"/>
</g>
</svg>
