<svg width="50" height="50" viewBox="0 0 50 50" fill="none" xmlns="http://www.w3.org/2000/svg">
<mask id="mask0_120_51" style="mask-type:alpha" maskUnits="userSpaceOnUse" x="0" y="0" width="50" height="50">
<rect width="50" height="50" fill="#D9D9D9"/>
</mask>
<g mask="url(#mask0_120_51)">
<path d="M10.4167 43.75C9.8264 43.75 9.33161 43.5503 8.9323 43.151C8.533 42.7517 8.33334 42.2569 8.33334 41.6667V39.5833C6.59723 39.5833 5.12154 38.9757 3.90626 37.7604C2.69098 36.5451 2.08334 35.0694 2.08334 33.3333V22.9167C2.08334 21.1806 2.69098 19.7049 3.90626 18.4896C5.12154 17.2743 6.59723 16.6667 8.33334 16.6667V12.5C8.33334 10.7639 8.94098 9.28819 10.1563 8.07292C11.3715 6.85764 12.8472 6.25 14.5833 6.25H35.4167C37.1528 6.25 38.6285 6.85764 39.8438 8.07292C41.059 9.28819 41.6667 10.7639 41.6667 12.5V16.6667C43.4028 16.6667 44.8785 17.2743 46.0938 18.4896C47.309 19.7049 47.9167 21.1806 47.9167 22.9167V33.3333C47.9167 35.0694 47.309 36.5451 46.0938 37.7604C44.8785 38.9757 43.4028 39.5833 41.6667 39.5833V41.6667C41.6667 42.2569 41.467 42.7517 41.0677 43.151C40.6684 43.5503 40.1736 43.75 39.5833 43.75C38.9931 43.75 38.4983 43.5503 38.099 43.151C37.6997 42.7517 37.5 42.2569 37.5 41.6667V39.5833H12.5V41.6667C12.5 42.2569 12.3004 42.7517 11.9011 43.151C11.5017 43.5503 11.007 43.75 10.4167 43.75ZM8.33334 35.4167H41.6667C42.257 35.4167 42.7517 35.217 43.1511 34.8177C43.5504 34.4184 43.75 33.9236 43.75 33.3333V22.9167C43.75 22.3264 43.5504 21.8316 43.1511 21.4323C42.7517 21.033 42.257 20.8333 41.6667 20.8333C41.0764 20.8333 40.5816 21.033 40.1823 21.4323C39.783 21.8316 39.5833 22.3264 39.5833 22.9167V31.25H10.4167V22.9167C10.4167 22.3264 10.217 21.8316 9.81772 21.4323C9.41841 21.033 8.92362 20.8333 8.33334 20.8333C7.74307 20.8333 7.24827 21.033 6.84897 21.4323C6.44966 21.8316 6.25001 22.3264 6.25001 22.9167V33.3333C6.25001 33.9236 6.44966 34.4184 6.84897 34.8177C7.24827 35.217 7.74307 35.4167 8.33334 35.4167ZM14.5833 27.0833H35.4167V22.9167C35.4167 21.9792 35.6076 21.1285 35.9896 20.3646C36.3715 19.6007 36.875 18.9236 37.5 18.3333V12.5C37.5 11.9097 37.3004 11.4149 36.9011 11.0156C36.5017 10.6163 36.007 10.4167 35.4167 10.4167H14.5833C13.9931 10.4167 13.4983 10.6163 13.099 11.0156C12.6997 11.4149 12.5 11.9097 12.5 12.5V18.3333C13.125 18.9236 13.6285 19.6007 14.0104 20.3646C14.3924 21.1285 14.5833 21.9792 14.5833 22.9167V27.0833Z" fill="#F5F5F7"/>
</g>
</svg>
