<svg width="50" height="50" viewBox="0 0 50 50" fill="none" xmlns="http://www.w3.org/2000/svg">
<mask id="mask0_120_63" style="mask-type:alpha" maskUnits="userSpaceOnUse" x="0" y="0" width="50" height="50">
<rect width="50" height="50" fill="#D9D9D9"/>
</mask>
<g mask="url(#mask0_120_63)">
<path d="M4.16663 43.7501V39.5834H22.9166V16.3022C22.0138 15.9897 21.2326 15.5036 20.5729 14.8438C19.9132 14.1841 19.427 13.4029 19.1145 12.5001H12.5L18.75 27.0834C18.75 28.8195 18.0382 30.2952 16.6145 31.5105C15.1909 32.7258 13.4722 33.3334 11.4583 33.3334C9.4444 33.3334 7.72565 32.7258 6.30204 31.5105C4.87843 30.2952 4.16663 28.8195 4.16663 27.0834L10.4166 12.5001H6.24996V8.33341H19.1145C19.5312 7.11814 20.2777 6.11987 21.3541 5.33862C22.4305 4.55737 23.6458 4.16675 25 4.16675C26.3541 4.16675 27.5694 4.55737 28.6458 5.33862C29.7222 6.11987 30.4687 7.11814 30.8854 8.33341H43.75V12.5001H39.5833L45.8333 27.0834C45.8333 28.8195 45.1215 30.2952 43.6979 31.5105C42.2743 32.7258 40.5555 33.3334 38.5416 33.3334C36.5277 33.3334 34.809 32.7258 33.3854 31.5105C31.9618 30.2952 31.25 28.8195 31.25 27.0834L37.5 12.5001H30.8854C30.5729 13.4029 30.0868 14.1841 29.427 14.8438C28.7673 15.5036 27.9861 15.9897 27.0833 16.3022V39.5834H45.8333V43.7501H4.16663ZM34.6354 27.0834H42.4479L38.5416 18.0209L34.6354 27.0834ZM7.55204 27.0834H15.3645L11.4583 18.0209L7.55204 27.0834ZM25 12.5001C25.5902 12.5001 26.085 12.3004 26.4843 11.9011C26.8836 11.5018 27.0833 11.007 27.0833 10.4167C27.0833 9.82647 26.8836 9.33168 26.4843 8.93237C26.085 8.53307 25.5902 8.33341 25 8.33341C24.4097 8.33341 23.9149 8.53307 23.5156 8.93237C23.1163 9.33168 22.9166 9.82647 22.9166 10.4167C22.9166 11.007 23.1163 11.5018 23.5156 11.9011C23.9149 12.3004 24.4097 12.5001 25 12.5001Z" fill="#F5F5F7"/>
</g>
</svg>
