<svg width="339" height="305" viewBox="0 0 339 305" fill="none" xmlns="http://www.w3.org/2000/svg">
<path d="M28.9372 126.26H32.9372V162.82H28.9372V126.26ZM23.5772 140.54H30.1772V143.94H23.5772V140.54ZM13.4972 130.86H17.5372C17.5372 140.66 14.3772 149.22 4.05719 155.14L1.61719 152.18C10.4172 147.14 13.4972 140.3 13.4972 131.7V130.86ZM3.21719 130.86H14.8172V134.26H3.21719V130.86ZM20.8172 127.22H24.7772V161.1H20.8172V127.22ZM63.7741 126.3H67.9741V152.78H63.7741V126.3ZM44.0941 158.7H69.0141V162.1H44.0941V158.7ZM44.0941 150.1H48.2941V159.98H44.0941V150.1ZM48.2541 128.74C53.7741 128.74 57.9341 132.5 57.9341 137.86C57.9341 143.14 53.7741 146.98 48.2541 146.98C42.7341 146.98 38.5341 143.14 38.5341 137.86C38.5341 132.5 42.7341 128.74 48.2541 128.74ZM48.2541 132.34C45.0541 132.34 42.6141 134.5 42.6141 137.86C42.6141 141.14 45.0541 143.3 48.2541 143.3C51.4541 143.3 53.8541 141.14 53.8541 137.86C53.8541 134.5 51.4541 132.34 48.2541 132.34ZM93.4909 135.46H101.131V138.9H93.4909V135.46ZM99.9309 126.26H104.131V148.02H99.9309V126.26ZM91.9309 148.98C99.5709 148.98 104.251 151.58 104.251 155.9C104.251 160.3 99.5709 162.82 91.9309 162.82C84.2909 162.82 79.6109 160.3 79.6109 155.9C79.6109 151.58 84.2909 148.98 91.9309 148.98ZM91.9309 152.22C86.7709 152.22 83.7709 153.5 83.7709 155.9C83.7709 158.3 86.7709 159.58 91.9309 159.58C97.1309 159.58 100.091 158.3 100.091 155.9C100.091 153.5 97.1309 152.22 91.9309 152.22ZM82.7709 129.94H86.1709V132.62C86.1709 139.46 82.4509 145.5 75.9709 147.82L73.8109 144.5C79.5309 142.5 82.7709 137.62 82.7709 132.62V129.94ZM83.6109 129.94H86.9709V132.58C86.9709 137.14 90.0909 141.66 95.5709 143.54L93.4909 146.86C87.1709 144.66 83.6109 138.9 83.6109 132.58V129.94ZM75.0109 128.74H94.6109V132.1H75.0109V128.74ZM109.848 154.9H142.968V158.34H109.848V154.9ZM124.248 146.58H128.408V155.82H124.248V146.58ZM113.528 128.74H117.728V134.86H134.968V128.74H139.128V147.58H113.528V128.74ZM117.728 138.18V144.18H134.968V138.18H117.728ZM162.029 149.1H166.309V162.82H162.029V149.1ZM174.629 149.1H178.909V162.82H174.629V149.1ZM153.989 146.86H187.109V150.26H153.989V146.86ZM170.469 127.62C178.189 127.62 183.429 130.74 183.429 135.7C183.429 140.58 178.189 143.74 170.469 143.74C162.789 143.74 157.509 140.58 157.509 135.7C157.509 130.74 162.789 127.62 170.469 127.62ZM170.469 130.98C165.229 130.98 161.789 132.74 161.789 135.7C161.789 138.62 165.229 140.38 170.469 140.38C175.709 140.38 179.149 138.62 179.149 135.7C179.149 132.74 175.709 130.98 170.469 130.98ZM204.426 144.62H208.586V150.06H204.426V144.62ZM190.066 142.18H222.986V145.3H190.066V142.18ZM204.426 126.14H208.586V130.54H204.426V126.14ZM204.186 130.82H207.866V131.46C207.866 136.98 201.746 140.26 192.746 140.86L191.586 137.7C199.506 137.3 204.186 134.78 204.186 131.46V130.82ZM205.146 130.82H208.826V131.46C208.826 134.78 213.506 137.3 221.426 137.7L220.226 140.86C211.266 140.26 205.146 136.98 205.146 131.46V130.82ZM193.266 129.3H219.746V132.42H193.266V129.3ZM193.906 148.14H218.906V156.62H198.106V160.62H193.946V153.74H214.786V151.22H193.906V148.14ZM193.946 159.38H219.946V162.5H193.946V159.38Z" fill="#1B1B1B"/>
<path d="M34.9839 63.74H35.8839V67.3C35.8839 70.98 33.4039 74.62 30.9039 76.04L30.2239 75.18C32.5639 73.96 34.9839 70.54 34.9839 67.3V63.74ZM35.1439 63.74H36.0239V67.3C36.0239 70.42 38.4639 73.66 40.8039 74.84L40.1239 75.68C37.6239 74.32 35.1439 70.86 35.1439 67.3V63.74ZM42.8839 62.1H43.9439V79.94H42.8839V62.1ZM43.6839 69.54H47.0639V70.46H43.6839V69.54ZM52.4423 63.24H53.3223V65.82C53.3223 68.24 51.6023 70.92 49.1623 72.04L48.5423 71.2C50.8023 70.2 52.4423 67.82 52.4423 65.82V63.24ZM52.6023 63.24H53.4623V65.82C53.4623 67.84 55.0423 69.9 57.2823 70.74L56.7023 71.58C54.2423 70.6 52.6023 68.26 52.6023 65.82V63.24ZM62.3023 62.12H63.3223V73.18H62.3023V62.12ZM59.0223 67.16H62.7023V68.06H59.0223V67.16ZM58.4423 62.46H59.4623V72.6H58.4423V62.46ZM57.5823 73.66C61.2023 73.66 63.4223 74.8 63.4223 76.78C63.4223 78.76 61.2023 79.88 57.5823 79.88C53.9423 79.88 51.7423 78.76 51.7423 76.78C51.7423 74.8 53.9423 73.66 57.5823 73.66ZM57.5823 74.54C54.6623 74.54 52.7823 75.38 52.7823 76.78C52.7823 78.16 54.6623 79.02 57.5823 79.02C60.4823 79.02 62.3623 78.16 62.3623 76.78C62.3623 75.38 60.4823 74.54 57.5823 74.54ZM78.9408 62.1H80.0208V72.64H78.9408V62.1ZM79.4608 66.88H82.8408V67.8H79.4608V66.88ZM68.7408 73.54H80.0208V76.88H69.8408V79.06H68.8008V76.1H78.9608V74.38H68.7408V73.54ZM68.8008 78.86H80.7408V79.7H68.8008V78.86ZM71.4608 69.54H72.5008V71.64H71.4608V69.54ZM66.5208 72.1L66.3608 71.22C69.5608 71.22 73.9808 71.2 77.7208 70.66L77.8008 71.4C73.9608 72.06 69.6608 72.1 66.5208 72.1ZM66.8208 63.62H77.1208V64.44H66.8208V63.62ZM71.9608 65.16C74.4208 65.16 76.0008 66.02 76.0008 67.5C76.0008 68.98 74.4208 69.86 71.9608 69.86C69.5008 69.86 67.9208 68.98 67.9208 67.5C67.9208 66.02 69.5008 65.16 71.9608 65.16ZM71.9608 65.94C70.1208 65.94 68.9208 66.56 68.9208 67.5C68.9208 68.44 70.1208 69.1 71.9608 69.1C73.8008 69.1 75.0008 68.44 75.0008 67.5C75.0008 66.56 73.8008 65.94 71.9608 65.94ZM71.4608 61.92H72.5008V64.02H71.4608V61.92ZM89.5392 64.94H90.3992V65.76C90.3992 68.86 88.1192 71.32 85.3992 72.32L84.8392 71.48C87.3592 70.6 89.5392 68.38 89.5392 65.76V64.94ZM89.6792 64.94H90.5792V65.76C90.5792 68.22 92.8192 70.28 95.3192 71.06L94.7992 71.9C92.0392 71 89.6792 68.72 89.6792 65.76V64.94ZM85.1992 64.38H94.8592V65.28H85.1992V64.38ZM89.5392 62H90.5792V64.78H89.5392V62ZM97.8192 62.12H98.8792V72.74H97.8192V62.12ZM87.5792 73.74H98.8792V79.68H87.5792V73.74ZM97.8392 74.62H88.6192V78.76H97.8392V74.62ZM102.358 65.38H111.398V66.28H102.358V65.38ZM106.858 67.72C109.058 67.72 110.658 69.34 110.658 71.66C110.658 74.02 109.058 75.64 106.858 75.64C104.678 75.64 103.098 74.02 103.098 71.66C103.098 69.34 104.678 67.72 106.858 67.72ZM106.858 68.64C105.238 68.64 104.058 69.96 104.058 71.66C104.058 73.38 105.238 74.72 106.858 74.72C108.498 74.72 109.678 73.38 109.678 71.66C109.678 69.96 108.498 68.64 106.858 68.64ZM116.318 62.1H117.338V79.94H116.318V62.1ZM113.038 69.76H116.658V70.68H113.038V69.76ZM112.438 62.56H113.458V79H112.438V62.56ZM106.338 62.64H107.398V65.9H106.338V62.64Z" fill="#6B6B6B"/>
<path d="M238.731 244.468H240.363V244.756C240.363 247.948 238.011 250.444 234.339 251.356L233.523 249.772C236.619 249.076 238.731 247.06 238.731 244.756V244.468ZM239.091 244.468H240.723V244.756C240.723 246.94 242.811 248.788 245.883 249.484L245.067 251.044C241.443 250.18 239.091 247.804 239.091 244.756V244.468ZM233.979 243.124H245.475V244.708H233.979V243.124ZM238.707 240.724H240.723V244.18H238.707V240.724ZM238.755 253.084H240.747V261.748H238.755V253.084ZM248.355 240.676H250.323V262.396H248.355V240.676ZM232.779 254.548L232.515 252.868C236.619 252.868 242.067 252.844 246.819 252.172L246.963 253.636C242.091 254.476 236.811 254.548 232.779 254.548ZM270.385 243.964H274.153V245.644H270.385V243.964ZM270.385 248.62H274.153V250.276H270.385V248.62ZM268.993 240.676H270.985V253.564H268.993V240.676ZM256.897 254.596H270.985V262.372H268.993V256.204H256.897V254.596ZM260.209 241.948C263.473 241.948 265.873 244.06 265.873 247.108C265.873 250.132 263.473 252.22 260.209 252.22C256.945 252.22 254.545 250.132 254.545 247.108C254.545 244.06 256.945 241.948 260.209 241.948ZM260.209 243.652C258.049 243.652 256.489 245.044 256.489 247.108C256.489 249.148 258.049 250.564 260.209 250.564C262.369 250.564 263.929 249.148 263.929 247.108C263.929 245.044 262.369 243.652 260.209 243.652ZM287.327 246.1H292.151V247.756H287.327V246.1ZM291.599 240.676H293.591V253.372H291.599V240.676ZM279.527 254.428H293.591V262.084H279.527V254.428ZM291.647 256.012H281.471V260.476H291.647V256.012ZM281.279 242.74H282.911V244.492C282.911 248.452 280.463 251.836 276.839 253.18L275.807 251.596C279.047 250.444 281.279 247.564 281.279 244.492V242.74ZM281.663 242.74H283.271V244.468C283.271 247.276 285.383 249.988 288.527 251.092L287.519 252.676C283.991 251.404 281.663 248.116 281.663 244.468V242.74ZM276.431 242.068H288.023V243.676H276.431V242.068Z" fill="#6B6B6B"/>
<path d="M133.511 33.024H135.669V46.596H133.511V33.024ZM135.071 38.77H139.153V40.564H135.071V38.77ZM120.901 47.74H135.669V56.216H120.901V47.74ZM133.563 49.456H123.007V54.474H133.563V49.456ZM123.995 34.402C127.531 34.402 130.131 36.69 130.131 39.966C130.131 43.216 127.531 45.478 123.995 45.478C120.459 45.478 117.859 43.216 117.859 39.966C117.859 36.69 120.459 34.402 123.995 34.402ZM123.995 36.222C121.655 36.222 119.965 37.756 119.965 39.966C119.965 42.176 121.655 43.684 123.995 43.684C126.335 43.684 128.025 42.176 128.025 39.966C128.025 37.756 126.335 36.222 123.995 36.222ZM141.881 36.456H160.965V38.224H141.881V36.456ZM140.841 52.004H162.135V53.798H140.841V52.004ZM150.383 48.286H152.515V52.706H150.383V48.286ZM151.423 39.81C156.181 39.81 159.119 41.448 159.119 44.282C159.119 47.116 156.181 48.754 151.423 48.754C146.691 48.754 143.753 47.116 143.753 44.282C143.753 41.448 146.691 39.81 151.423 39.81ZM151.423 41.5C148.017 41.5 145.911 42.54 145.911 44.282C145.911 46.024 148.017 47.038 151.423 47.038C154.855 47.038 156.935 46.024 156.935 44.282C156.935 42.54 154.855 41.5 151.423 41.5ZM150.383 33.414H152.515V37.548H150.383V33.414ZM170.323 47.038H172.481V50.86H170.323V47.038ZM180.203 33.024H182.361V56.528H180.203V33.024ZM181.659 43.008H186.001V44.828H181.659V43.008ZM164.265 52.056L163.953 50.262C168.165 50.262 173.911 50.21 178.773 49.508L178.955 51.12C173.885 52.03 168.373 52.056 164.265 52.056ZM164.343 35.858H178.409V37.6H164.343V35.858ZM171.389 38.978C174.665 38.978 176.927 40.694 176.927 43.32C176.927 45.972 174.665 47.662 171.389 47.662C168.113 47.662 165.877 45.972 165.877 43.32C165.877 40.694 168.113 38.978 171.389 38.978ZM171.389 40.642C169.283 40.642 167.905 41.708 167.905 43.32C167.905 44.932 169.283 45.998 171.389 45.998C173.495 45.998 174.899 44.932 174.899 43.32C174.899 41.708 173.495 40.642 171.389 40.642ZM170.323 33.05H172.481V37.028H170.323V33.05Z" fill="#2D2D2D"/>
<path d="M9.08541 181.446H13.6934V182.256H9.08541V181.446ZM5.50341 177.216H6.29541V180.42C6.29541 183.732 4.09941 187.026 1.83141 188.304L1.21941 187.53C3.34341 186.432 5.50341 183.336 5.50341 180.42V177.216ZM5.68341 177.216H6.47541V180.42C6.47541 183.264 8.67141 186.18 10.7954 187.224L10.2194 188.016C7.91541 186.774 5.68341 183.624 5.68341 180.42V177.216ZM13.2074 175.74H14.1614V191.796H13.2074V175.74ZM29.406 175.74H30.36V191.796H29.406V175.74ZM24.816 181.896H29.694V182.706H24.816V181.896ZM17.994 177.018H18.948V181.356H24.204V177.018H25.14V187.602H17.994V177.018ZM18.948 182.148V186.774H24.204V182.148H18.948Z" fill="#6B6B6B"/>
<path d="M198.634 265.3H199.818V279.732H198.634V265.3ZM192.25 266.436C194.362 266.436 195.882 268.388 195.882 271.444C195.882 274.484 194.362 276.452 192.25 276.452C190.122 276.452 188.602 274.484 188.602 271.444C188.602 268.388 190.122 266.436 192.25 266.436ZM192.25 267.492C190.778 267.492 189.754 269.076 189.754 271.444C189.754 273.812 190.778 275.396 192.25 275.396C193.722 275.396 194.73 273.812 194.73 271.444C194.73 269.076 193.722 267.492 192.25 267.492ZM203.001 267.012H208.457V275.812H203.001V267.012ZM207.337 267.956H204.105V274.868H207.337V267.956ZM213.529 265.316H214.681V279.716H213.529V265.316ZM207.865 270.772H211.193V271.764H207.865V270.772ZM210.697 265.636H211.817V278.98H210.697V265.636ZM220.903 265.86C223.047 265.86 224.599 267.156 224.599 269.044C224.599 270.916 223.047 272.212 220.903 272.212C218.759 272.212 217.191 270.916 217.191 269.044C217.191 267.156 218.759 265.86 220.903 265.86ZM220.903 266.836C219.447 266.836 218.359 267.764 218.359 269.044C218.359 270.324 219.447 271.236 220.903 271.236C222.359 271.236 223.447 270.324 223.447 269.044C223.447 267.764 222.359 266.836 220.903 266.836ZM227.447 265.316H228.631V272.724H227.447V265.316ZM219.367 273.444H228.631V276.868H220.567V279.108H219.415V275.972H227.463V274.404H219.367V273.444ZM219.415 278.564H229.143V279.524H219.415V278.564Z" fill="#AAAAAA"/>
<path d="M315.953 130.128H322.925V130.86H315.953V130.128ZM314.693 134.016H324.497V134.748H314.693V134.016ZM319.133 134.508H320.021V137.1H319.133V134.508ZM322.325 130.128H323.201V130.908C323.201 131.796 323.201 132.888 322.841 134.376L321.977 134.268C322.325 132.804 322.325 131.772 322.325 130.908V130.128ZM315.725 136.8H323.273V140.412H322.385V137.532H315.725V136.8ZM332.872 129.6H333.772V140.412H332.872V129.6ZM333.532 134.04H335.536V134.784H333.532V134.04ZM330.136 130.776H331C331 133.812 329.56 136.596 326.08 138.336L325.588 137.64C328.6 136.128 330.136 133.764 330.136 130.908V130.776ZM326.068 130.776H330.592V131.52H326.068V130.776Z" fill="#808080"/>
<path d="M153.022 13.23H157.576V14.328H153.022V13.23ZM149.206 9.09H150.286V12.078C150.286 15.624 148.288 19.062 145.804 20.412L144.958 19.35C147.262 18.198 149.206 15.066 149.206 12.078V9.09ZM149.458 9.09H150.538V12.078C150.538 15.012 152.482 17.946 154.786 19.062L153.976 20.142C151.456 18.828 149.458 15.534 149.458 12.078V9.09ZM156.91 7.65H158.242V23.886H156.91V7.65ZM173.037 7.65H174.369V23.886H173.037V7.65ZM162.075 9.054H163.407V13.392H168.339V9.054H169.653V19.962H162.075V9.054ZM163.407 14.454V18.846H168.339V14.454H163.407ZM183.925 8.802H185.077V10.062C185.077 13.59 181.657 16.272 178.597 16.992L178.003 15.876C180.685 15.354 183.925 12.906 183.925 10.062V8.802ZM184.159 8.802H185.311V10.062C185.311 12.906 188.569 15.354 191.251 15.876L190.639 16.992C187.615 16.272 184.159 13.59 184.159 10.062V8.802ZM177.337 20.538H192.043V21.654H177.337V20.538Z" fill="#6B6B6B"/>
<path d="M208.876 23.072H220.314V23.94H208.876V23.072ZM214.056 19.992H215.078V23.338H214.056V19.992ZM210.248 13.86H211.27V16.17H217.892V13.86H218.914V20.286H210.248V13.86ZM211.27 17.024V19.432H217.892V17.024H211.27ZM230.197 12.95H231.233V22.26H230.197V12.95ZM230.897 16.828H233.123V17.696H230.897V16.828ZM223.435 24.416H231.821V25.284H223.435V24.416ZM223.435 21.308H224.471V24.752H223.435V21.308ZM224.989 13.86C226.865 13.86 228.251 15.134 228.251 16.954C228.251 18.76 226.865 20.034 224.989 20.034C223.127 20.034 221.741 18.76 221.741 16.954C221.741 15.134 223.127 13.86 224.989 13.86ZM224.989 14.77C223.715 14.77 222.749 15.68 222.749 16.954C222.749 18.214 223.715 19.124 224.989 19.124C226.277 19.124 227.257 18.214 227.257 16.954C227.257 15.68 226.277 14.77 224.989 14.77ZM240.78 16.156H243.65V17.024H240.78V16.156ZM243.37 12.964H244.406V20.356H243.37V12.964ZM236.272 20.986H244.406V25.396H236.272V20.986ZM243.398 21.812H237.294V24.542H243.398V21.812ZM237.336 14.168H238.19V15.218C238.19 17.5 236.72 19.446 234.676 20.216L234.13 19.39C235.964 18.732 237.336 17.038 237.336 15.218V14.168ZM237.532 14.168H238.386V15.218C238.386 16.87 239.674 18.452 241.48 19.096L240.948 19.922C238.932 19.18 237.532 17.304 237.532 15.218V14.168ZM234.48 13.804H241.2V14.658H234.48V13.804ZM252.035 13.79H253.127C253.127 16.94 250.859 19.208 247.261 20.23L246.827 19.418C250.047 18.494 252.035 16.632 252.035 14.21V13.79ZM247.471 13.79H252.735V14.63H247.471V13.79ZM255.969 12.964H257.005V20.174H255.969V12.964ZM253.141 16.254H256.179V17.122H253.141V16.254ZM248.913 20.72H257.005V25.382H248.913V20.72ZM255.997 21.56H249.935V24.542H255.997V21.56Z" fill="#AAAAAA"/>
<path d="M298.326 147.034H299.068V156.204H298.326V147.034ZM291.242 158.556H299.502V159.2H291.242V158.556ZM291.242 155.392H291.97V158.808H291.242V155.392ZM292.376 147.72H293.006V149.022C293.006 151.458 291.466 153.502 289.576 154.342L289.17 153.74C290.906 152.998 292.376 151.136 292.376 149.022V147.72ZM292.488 147.72H293.118V149.022C293.118 151.038 294.616 152.816 296.352 153.502L295.946 154.104C294.056 153.292 292.488 151.374 292.488 149.022V147.72ZM304.457 151.276H305.199V153.67H304.457V151.276ZM309.161 151.276H309.889V153.67H309.161V151.276ZM301.531 153.348H312.801V153.964H301.531V153.348ZM307.159 155.112C309.819 155.112 311.401 155.882 311.401 157.282C311.401 158.682 309.819 159.48 307.159 159.48C304.513 159.48 302.931 158.682 302.931 157.282C302.931 155.882 304.513 155.112 307.159 155.112ZM307.159 155.7C305.045 155.7 303.673 156.316 303.673 157.282C303.673 158.276 305.045 158.864 307.159 158.864C309.287 158.864 310.645 158.276 310.645 157.282C310.645 156.316 309.287 155.7 307.159 155.7ZM307.159 147.286C309.833 147.286 311.471 148.112 311.471 149.554C311.471 150.996 309.833 151.822 307.159 151.822C304.485 151.822 302.847 150.996 302.847 149.554C302.847 148.112 304.485 147.286 307.159 147.286ZM307.159 147.888C305.003 147.888 303.603 148.518 303.603 149.554C303.603 150.576 305.003 151.22 307.159 151.22C309.315 151.22 310.715 150.576 310.715 149.554C310.715 148.518 309.315 147.888 307.159 147.888ZM319.8 148.378H320.528C320.528 151.836 319.142 155.21 314.774 157.338L314.354 156.75C318.344 154.804 319.8 151.78 319.8 148.448V148.378ZM314.984 148.378H320.248V149.008H314.984V148.378ZM319.492 151.486V152.088L314.522 152.564L314.368 151.864L319.492 151.486ZM322.866 147.02H323.608V159.508H322.866V147.02ZM323.398 152.27H325.764V152.9H323.398V152.27ZM328.227 153.138H336.683V153.782H328.227V153.138ZM326.729 157.058H338.041V157.702H326.729V157.058ZM328.227 148.252H336.529V148.882H328.983V153.446H328.227V148.252Z" fill="#9F9F9F"/>
<path d="M35.8435 91.06H37.8835V95.92C37.8835 102.16 34.5235 107.95 30.0835 110.2L28.5535 108.16C32.5735 106.24 35.8435 101.05 35.8435 95.92V91.06ZM36.2635 91.06H38.3035V95.92C38.3035 100.87 41.5435 105.85 45.5635 107.71L44.0635 109.69C39.6535 107.53 36.2635 101.95 36.2635 95.92V91.06ZM48.3835 88.69H50.8735V115.87H48.3835V88.69ZM66.5612 90.58H68.7212V92.65C68.7212 98.56 63.2312 103.15 57.8012 104.38L56.6912 102.31C61.4612 101.41 66.5612 97.27 66.5612 92.65V90.58ZM67.0112 90.58H69.1712V92.65C69.1712 97.3 74.3012 101.41 79.0412 102.31L77.9312 104.38C72.5312 103.15 67.0112 98.59 67.0112 92.65V90.58ZM55.7012 110.14H80.2712V112.18H55.7012V110.14ZM94.3388 95.53H98.9588V97.57H94.3388V95.53ZM83.9288 101.38H85.6388C89.8688 101.38 92.3888 101.29 95.3888 100.69L95.6288 102.67C92.5088 103.3 89.9588 103.39 85.6388 103.39H83.9288V101.38ZM83.9288 90.49H94.1588V92.5H86.3288V102.58H83.9288V90.49ZM85.5788 95.8H93.0788V97.78H85.5788V95.8ZM103.159 88.72H105.529V105.04H103.159V88.72ZM97.9388 89.17H100.279V104.77H97.9388V89.17ZM87.7388 106.33H105.529V115.48H87.7388V106.33ZM103.129 108.31H90.1688V113.47H103.129V108.31Z" fill="#2D2D2D"/>
<path d="M241.009 168.676H242.929V190.372H241.009V168.676ZM232.009 176.956H237.457V178.588H232.009V176.956ZM236.641 169.18H238.537V189.268H236.641V169.18ZM225.313 183.484H226.705C230.089 183.484 232.129 183.388 234.529 182.884L234.721 184.54C232.249 185.068 230.161 185.164 226.705 185.164H225.313V183.484ZM225.313 171.316H233.473V172.948H227.281V184.132H225.313V171.316ZM261.863 168.652H263.855V190.396H261.863V168.652ZM252.407 170.332C255.623 170.332 257.927 173.284 257.927 177.892C257.927 182.524 255.623 185.476 252.407 185.476C249.215 185.476 246.911 182.524 246.911 177.892C246.911 173.284 249.215 170.332 252.407 170.332ZM252.407 172.132C250.295 172.132 248.807 174.388 248.807 177.892C248.807 181.42 250.295 183.724 252.407 183.724C254.543 183.724 256.007 181.42 256.007 177.892C256.007 174.388 254.543 172.132 252.407 172.132ZM283.605 168.652H285.573V190.396H283.605V168.652ZM279.093 176.836H283.893V178.492H279.093V176.836ZM268.701 183.532H270.357C274.437 183.532 277.005 183.46 280.053 182.884L280.245 184.516C277.125 185.068 274.485 185.188 270.357 185.188H268.701V183.532ZM268.701 170.644H278.733V172.3H270.669V184.108H268.701V170.644ZM270.165 176.74H277.797V178.348H270.165V176.74ZM294.203 185.956H313.859V187.612H294.203V185.956ZM302.987 180.772H304.979V186.436H302.987V180.772ZM296.507 170.212H298.475V174.076H309.539V170.212H311.507V181.3H296.507V170.212ZM298.475 175.684V179.668H309.539V175.684H298.475ZM330.633 168.652H332.625V184.636H330.633V168.652ZM332.001 175.252H335.841V176.908H332.001V175.252ZM319.113 188.26H333.609V189.892H319.113V188.26ZM319.113 183.004H321.105V188.908H319.113V183.004ZM321.849 170.188C325.089 170.188 327.513 172.42 327.513 175.54C327.513 178.684 325.089 180.892 321.849 180.892C318.609 180.892 316.185 178.684 316.185 175.54C316.185 172.42 318.609 170.188 321.849 170.188ZM321.849 171.94C319.737 171.94 318.129 173.428 318.129 175.54C318.129 177.676 319.737 179.14 321.849 179.14C323.961 179.14 325.569 177.676 325.569 175.54C325.569 173.428 323.961 171.94 321.849 171.94Z" fill="#1B1B1B"/>
<path d="M239.339 207.56H248.139V209.056H239.339V207.56ZM242.331 211.872H244.135V216.624H242.331V211.872ZM247.413 207.56H249.195V208.638C249.195 209.892 249.195 211.674 248.689 214.028L246.907 213.874C247.413 211.542 247.413 209.892 247.413 208.638V207.56ZM251.923 206.328H253.749V218.736H251.923V206.328ZM252.913 211.74H256.587V213.28H252.913V211.74ZM238.349 217.372L238.129 215.854C241.737 215.854 246.555 215.788 250.581 215.26L250.713 216.602C246.599 217.284 241.891 217.372 238.349 217.372ZM247.325 218.978C251.417 218.978 253.947 220.298 253.947 222.564C253.947 224.852 251.417 226.172 247.325 226.172C243.233 226.172 240.747 224.852 240.747 222.564C240.747 220.298 243.233 218.978 247.325 218.978ZM247.325 220.408C244.377 220.408 242.573 221.2 242.573 222.564C242.573 223.928 244.377 224.72 247.325 224.72C250.295 224.72 252.077 223.928 252.077 222.564C252.077 221.2 250.295 220.408 247.325 220.408ZM259.974 208.308H272.778V209.826H259.974V208.308ZM258.082 221.926H276.056V223.444H258.082V221.926ZM265.056 214.82H266.882V222.674H265.056V214.82ZM272.096 208.308H273.9V210.288C273.9 212.752 273.9 215.48 273.174 219.506L271.348 219.264C272.096 215.458 272.096 212.664 272.096 210.288V208.308ZM288.418 211.806H293.434V213.302H288.418V211.806ZM292.4 206.35H294.226V220.914H292.4V206.35ZM281.532 224.28H294.776V225.776H281.532V224.28ZM281.532 219.638H283.358V225.05H281.532V219.638ZM282.94 208.814H284.436V210.42C284.436 214.028 282.192 217.152 278.87 218.384L277.924 216.932C280.894 215.876 282.94 213.236 282.94 210.42V208.814ZM283.292 208.814H284.766V210.398C284.766 212.972 286.702 215.48 289.584 216.492L288.66 217.922C285.426 216.756 283.292 213.764 283.292 210.398V208.814ZM278.496 207.956H289.122V209.43H278.496V207.956ZM302.826 218.186H304.652V221.42H302.826V218.186ZM311.186 206.328H313.012V226.216H311.186V206.328ZM312.418 214.776H316.092V216.316H312.418V214.776ZM297.7 222.432L297.436 220.914C301 220.914 305.862 220.87 309.976 220.276L310.13 221.64C305.84 222.41 301.176 222.432 297.7 222.432ZM297.766 208.726H309.668V210.2H297.766V208.726ZM303.728 211.366C306.5 211.366 308.414 212.818 308.414 215.04C308.414 217.284 306.5 218.714 303.728 218.714C300.956 218.714 299.064 217.284 299.064 215.04C299.064 212.818 300.956 211.366 303.728 211.366ZM303.728 212.774C301.946 212.774 300.78 213.676 300.78 215.04C300.78 216.404 301.946 217.306 303.728 217.306C305.51 217.306 306.698 216.404 306.698 215.04C306.698 213.676 305.51 212.774 303.728 212.774ZM302.826 206.35H304.652V209.716H302.826V206.35Z" fill="#6B6B6B"/>
<path d="M160.023 225.62H177.943V228.34H160.023V225.62ZM168.983 230.74C173.503 230.74 176.783 234.14 176.783 239.02C176.783 243.86 173.503 247.26 168.983 247.26C164.503 247.26 161.223 243.86 161.223 239.02C161.223 234.14 164.503 230.74 168.983 230.74ZM168.983 233.58C166.223 233.58 164.223 235.82 164.223 239.02C164.223 242.22 166.223 244.46 168.983 244.46C171.783 244.46 173.823 242.22 173.823 239.02C173.823 235.82 171.783 233.58 168.983 233.58ZM187.503 219.46H190.703V255.62H187.503V219.46ZM181.743 234.66H188.583V237.42H181.743V234.66ZM179.783 220.26H182.903V253.86H179.783V220.26ZM167.383 220.5H170.663V227.3H167.383V220.5ZM211.7 221.94H215.14C215.14 231.26 209.94 237.98 198.38 241.38L197.1 238.7C207.38 235.74 211.7 230.26 211.7 223.22V221.94ZM198.66 221.94H213.5V224.62H198.66V221.94ZM211.26 228.58V230.94L197.42 231.98L196.86 229.26L211.26 228.58ZM222.38 219.5H225.74V241.22H222.38V219.5ZM213.78 241.74C221.26 241.74 225.94 244.3 225.94 248.66C225.94 253.02 221.26 255.58 213.78 255.58C206.3 255.58 201.66 253.02 201.66 248.66C201.66 244.3 206.3 241.74 213.78 241.74ZM213.78 244.38C208.3 244.38 204.94 245.94 204.94 248.66C204.94 251.34 208.3 252.94 213.78 252.94C219.26 252.94 222.62 251.34 222.62 248.66C222.62 245.94 219.26 244.38 213.78 244.38Z" fill="#2D2D2D"/>
<path d="M163.783 192.816H166.483V205.236H163.783V192.816ZM174.907 192.816H177.607V205.236H174.907V192.816ZM156.043 191.34H185.455V193.572H156.043V191.34ZM170.695 174.168C177.427 174.168 181.963 176.868 181.963 181.188C181.963 185.472 177.427 188.208 170.695 188.208C163.963 188.208 159.427 185.472 159.427 181.188C159.427 176.868 163.963 174.168 170.695 174.168ZM170.695 176.292C165.619 176.292 162.127 178.236 162.127 181.188C162.127 184.14 165.619 186.048 170.695 186.048C175.771 186.048 179.227 184.14 179.227 181.188C179.227 178.236 175.771 176.292 170.695 176.292ZM188.476 198.9H217.888V201.132H188.476V198.9ZM201.76 190.332H204.388V199.908H201.76V190.332ZM191.104 176.004H215.044V178.2H191.104V176.004ZM191.176 189.072H215.008V191.232H191.176V189.072ZM196.252 177.732H198.916V189.468H196.252V177.732ZM207.268 177.732H209.896V189.468H207.268V177.732Z" fill="#2D2D2D"/>
<path d="M51.4455 196.1H58.9455V198.65H51.4455V196.1ZM58.0755 188.6H61.2255V208.85H58.0755V188.6ZM43.3755 212.9H61.8555V215.45H43.3755V212.9ZM43.3755 206.87H46.5255V214.28H43.3755V206.87ZM39.7455 190.4H42.8655V194.93H49.3155V190.4H52.4055V204.35H39.7455V190.4ZM42.8655 197.36V201.83H49.3155V197.36H42.8655ZM66.6532 192.32H89.0632V194.84H66.6532V192.32ZM65.5132 210.44H90.3532V212.99H65.5132V210.44ZM76.3132 206.39H79.4332V211.43H76.3132V206.39ZM77.8432 196.4C83.4532 196.4 86.9632 198.35 86.9632 201.68C86.9632 205.01 83.4532 206.96 77.8432 206.96C72.2332 206.96 68.7532 205.01 68.7532 201.68C68.7532 198.35 72.2332 196.4 77.8432 196.4ZM77.8432 198.86C74.0932 198.86 71.9332 199.85 71.9332 201.68C71.9332 203.51 74.0932 204.47 77.8432 204.47C81.5932 204.47 83.7532 203.51 83.7532 201.68C83.7532 199.85 81.5932 198.86 77.8432 198.86ZM76.3132 188.96H79.4332V193.88H76.3132V188.96ZM104.649 205.7H107.859V215.99H104.649V205.7ZM114.099 205.7H117.309V215.99H114.099V205.7ZM98.6191 204.02H123.459V206.57H98.6191V204.02ZM110.979 189.59C116.769 189.59 120.699 191.93 120.699 195.65C120.699 199.31 116.769 201.68 110.979 201.68C105.219 201.68 101.259 199.31 101.259 195.65C101.259 191.93 105.219 189.59 110.979 189.59ZM110.979 192.11C107.049 192.11 104.469 193.43 104.469 195.65C104.469 197.84 107.049 199.16 110.979 199.16C114.909 199.16 117.489 197.84 117.489 195.65C117.489 193.43 114.909 192.11 110.979 192.11ZM136.447 202.34H139.567V206.42H136.447V202.34ZM125.677 200.51H150.367V202.85H125.677V200.51ZM136.447 188.48H139.567V191.78H136.447V188.48ZM136.267 191.99H139.027V192.47C139.027 196.61 134.437 199.07 127.687 199.52L126.817 197.15C132.757 196.85 136.267 194.96 136.267 192.47V191.99ZM136.987 191.99H139.747V192.47C139.747 194.96 143.257 196.85 149.197 197.15L148.297 199.52C141.577 199.07 136.987 196.61 136.987 192.47V191.99ZM128.077 190.85H147.937V193.19H128.077V190.85ZM128.557 204.98H147.307V211.34H131.707V214.34H128.587V209.18H144.217V207.29H128.557V204.98ZM128.587 213.41H148.087V215.75H128.587V213.41Z" fill="#2D2D2D"/>
<path d="M125.658 90.884H128.418V91.532C128.418 95.444 125.226 98.636 119.586 99.404L118.41 96.908C123.306 96.308 125.658 93.812 125.658 91.532V90.884ZM126.57 90.884H129.33V91.532C129.33 93.812 131.682 96.308 136.578 96.908L135.426 99.404C129.762 98.636 126.57 95.444 126.57 91.532V90.884ZM125.826 102.5H128.994V110.66H125.826V102.5ZM117.45 100.676H137.538V103.22H117.45V100.676ZM119.226 89.54H135.714V92.06H119.226V89.54ZM140.152 90.164H150.928V100.916H140.152V90.164ZM147.808 92.684H143.272V98.396H147.808V92.684ZM154.288 88.436H157.504V104.228H154.288V88.436ZM142.696 107.612H158.056V110.18H142.696V107.612ZM142.696 102.788H145.888V108.74H142.696V102.788ZM160.646 98.564H180.758V101.156H160.646V98.564ZM163.07 94.508H178.478V97.028H163.07V94.508ZM163.07 89.012H178.358V91.556H166.238V95.756H163.07V89.012ZM170.63 102.476C175.43 102.476 178.334 103.94 178.334 106.556C178.334 109.172 175.43 110.636 170.63 110.636C165.83 110.636 162.902 109.172 162.902 106.556C162.902 103.94 165.83 102.476 170.63 102.476ZM170.63 104.876C167.654 104.876 166.142 105.428 166.142 106.556C166.142 107.708 167.654 108.212 170.63 108.212C173.606 108.212 175.118 107.708 175.118 106.556C175.118 105.428 173.606 104.876 170.63 104.876ZM182.22 100.316H202.356V102.86H182.22V100.316ZM184.692 88.844H199.908V94.868H187.884V97.268H184.716V92.612H196.764V91.268H184.692V88.844ZM184.716 96.308H200.34V98.732H184.716V96.308ZM190.692 97.484H193.884V101.708H190.692V97.484ZM184.452 104.108H200.052V110.564H196.86V106.628H184.452V104.108ZM214.33 94.316H220.042V96.86H214.33V94.316ZM219.226 88.436H222.418V104.828H219.226V88.436ZM207.706 107.708H222.898V110.252H207.706V107.708ZM207.706 103.22H210.922V109.172H207.706V103.22ZM204.754 89.876H207.922V93.26H212.146V89.876H215.266V101.348H204.754V89.876ZM207.922 95.684V98.828H212.146V95.684H207.922ZM226.28 91.172H244.616V93.716H226.28V91.172ZM225.44 105.836H245.552V108.404H225.44V105.836ZM233.864 102.908H237.032V106.844H233.864V102.908ZM235.424 94.676C240.056 94.676 242.96 96.284 242.96 99.02C242.96 101.756 240.056 103.364 235.424 103.364C230.792 103.364 227.888 101.756 227.888 99.02C227.888 96.284 230.792 94.676 235.424 94.676ZM235.424 97.148C232.64 97.148 231.152 97.748 231.152 99.02C231.152 100.292 232.64 100.868 235.424 100.868C238.208 100.868 239.696 100.292 239.696 99.02C239.696 97.748 238.208 97.148 235.424 97.148ZM233.864 88.652H237.032V92.756H233.864V88.652Z" fill="#2D2D2D"/>
<path d="M250.227 103.06H259.187V104.42H250.227V103.06ZM254.707 105.62C256.967 105.62 258.607 107.32 258.607 109.76C258.607 112.18 256.967 113.88 254.707 113.88C252.467 113.88 250.827 112.18 250.827 109.76C250.827 107.32 252.467 105.62 254.707 105.62ZM254.707 107.04C253.327 107.04 252.327 108.16 252.327 109.76C252.327 111.36 253.327 112.48 254.707 112.48C256.107 112.48 257.127 111.36 257.127 109.76C257.127 108.16 256.107 107.04 254.707 107.04ZM263.967 99.98H265.567V118.06H263.967V99.98ZM261.087 107.58H264.507V108.96H261.087V107.58ZM260.107 100.38H261.667V117.18H260.107V100.38ZM253.907 100.5H255.547V103.9H253.907V100.5ZM273.265 109.02H274.945V113.14H273.265V109.02ZM274.125 101.14C276.945 101.14 278.965 102.88 278.965 105.4C278.965 107.92 276.945 109.66 274.125 109.66C271.305 109.66 269.265 107.92 269.265 105.4C269.265 102.88 271.305 101.14 274.125 101.14ZM274.125 102.58C272.245 102.58 270.885 103.72 270.885 105.4C270.885 107.08 272.245 108.24 274.125 108.24C275.985 108.24 277.345 107.08 277.345 105.4C277.345 103.72 275.985 102.58 274.125 102.58ZM281.325 99.96H282.985V118.08H281.325V99.96ZM268.585 114.16L268.345 112.78C271.645 112.78 276.205 112.76 280.145 112.14L280.285 113.36C276.225 114.14 271.805 114.16 268.585 114.16ZM303.536 99.98H305.196V109.2H303.536V99.98ZM297.816 100.86H299.616C299.616 105.42 296.476 108.34 291.196 109.62L290.616 108.26C295.296 107.18 297.816 104.8 297.816 101.68V100.86ZM291.556 100.86H298.576V102.22H291.556V100.86ZM298.976 102.58H303.816V103.9H298.976V102.58ZM298.816 106.04H303.716V107.34H298.816V106.04ZM293.556 110.04H305.196V114.48H295.256V117.36H293.616V113.2H303.556V111.38H293.556V110.04ZM293.616 116.56H305.796V117.88H293.616V116.56ZM322.075 99.98H323.675V118.06H322.075V99.98ZM315.495 106.46H318.955V107.84H315.495V106.46ZM318.455 100.4H320.015V117.14H318.455V100.4ZM312.015 102.78H313.295V105.08C313.295 109.04 311.775 112.78 309.115 114.46L308.095 113.22C310.615 111.7 312.015 108.4 312.015 105.08V102.78ZM312.355 102.78H313.635V105.08C313.635 108.22 314.995 111.36 317.475 112.8L316.455 114.02C313.815 112.42 312.355 108.86 312.355 105.08V102.78ZM308.595 102.08H316.855V103.46H308.595V102.08Z" fill="#AAAAAA"/>
<path d="M234.231 124.442H244.689V125.54H234.231V124.442ZM232.341 130.274H247.047V131.372H232.341V130.274ZM239.001 131.012H240.333V134.9H239.001V131.012ZM243.789 124.442H245.103V125.612C245.103 126.944 245.103 128.582 244.563 130.814L243.267 130.652C243.789 128.456 243.789 126.908 243.789 125.612V124.442ZM233.889 134.45H245.211V139.868H243.879V135.548H233.889V134.45ZM260.977 123.668H262.273V139.868H260.977V123.668ZM254.965 129.536H258.169V130.634H254.965V129.536ZM257.737 124.064H258.997V139.022H257.737V124.064ZM251.941 126.152H252.967V128.294C252.967 131.804 251.527 135.116 249.187 136.61L248.359 135.602C250.591 134.252 251.941 131.3 251.941 128.294V126.152ZM252.193 126.152H253.237V128.294C253.237 131.138 254.515 133.946 256.729 135.224L255.901 136.214C253.579 134.792 252.193 131.642 252.193 128.294V126.152ZM248.773 125.594H256.207V126.71H248.773V125.594ZM265.44 124.316H266.754V126.728H271.596V124.316H272.892V131.39H265.44V124.316ZM266.754 127.772V130.31H271.596V127.772H266.754ZM275.952 123.668H277.284V132.056H275.952V123.668ZM276.69 127.214H279.714V128.33H276.69V127.214ZM267.078 132.848H277.284V136.7H268.41V139.22H267.114V135.692H275.97V133.928H267.078V132.848ZM267.114 138.608H277.878V139.688H267.114V138.608ZM292.853 123.686H294.185V135.566H292.853V123.686ZM283.853 138.392H294.707V139.508H283.853V138.392ZM283.853 134.486H285.167V138.896H283.853V134.486ZM285.239 124.568H286.337V126.224C286.337 129.392 284.483 132.11 281.855 133.208L281.153 132.146C283.529 131.192 285.239 128.798 285.239 126.224V124.568ZM285.473 124.568H286.571V126.224C286.571 128.708 288.299 130.958 290.657 131.84L289.955 132.902C287.327 131.858 285.473 129.302 285.473 126.224V124.568Z" fill="#6B6B6B"/>
<path d="M36.0095 229.108H38.0255V231.04C38.0255 236.556 32.9015 240.84 27.8335 241.988L26.7975 240.056C31.2495 239.216 36.0095 235.352 36.0095 231.04V229.108ZM36.4295 229.108H38.4455V231.04C38.4455 235.38 43.2335 239.216 47.6575 240.056L46.6215 241.988C41.5815 240.84 36.4295 236.584 36.4295 231.04V229.108ZM25.8735 247.364H48.8055V249.268H25.8735V247.364ZM51.3793 229.416H63.1673V231.32H51.3793V229.416ZM51.2113 240.924L50.9593 238.936C54.2913 238.936 59.7513 238.88 63.6713 238.376L63.8113 240.112C59.7793 240.84 54.5153 240.924 51.2113 240.924ZM53.5353 230.676H55.6633V239.608H53.5353V230.676ZM58.9113 230.676H61.0393V239.608H58.9113V230.676ZM70.1953 227.4H72.4073V242.156H70.1953V227.4ZM66.1633 233.756H70.9233V235.66H66.1633V233.756ZM64.8753 227.82H67.0873V241.876H64.8753V227.82ZM55.7753 243.5H72.4073V252.348H55.7753V243.5ZM70.1393 245.376H58.0713V250.472H70.1393V245.376ZM95.3829 234.344H101.767V236.248H95.3829V234.344ZM100.451 227.4H102.775V245.936H100.451V227.4ZM86.6189 250.22H103.475V252.124H86.6189V250.22ZM86.6189 244.312H88.9429V251.2H86.6189V244.312ZM88.4109 230.536H90.3149V232.58C90.3149 237.172 87.4589 241.148 83.2309 242.716L82.0269 240.868C85.8069 239.524 88.4109 236.164 88.4109 232.58V230.536ZM88.8589 230.536H90.7349V232.552C90.7349 235.828 93.1989 239.02 96.8669 240.308L95.6909 242.128C91.5749 240.644 88.8589 236.836 88.8589 232.552V230.536ZM82.7549 229.444H96.2789V231.32H82.7549V229.444ZM113.721 242.464H116.045V246.58H113.721V242.464ZM124.361 227.372H126.685V252.684H124.361V227.372ZM125.929 238.124H130.605V240.084H125.929V238.124ZM107.197 247.868L106.861 245.936C111.397 245.936 117.585 245.88 122.821 245.124L123.017 246.86C117.557 247.84 111.621 247.868 107.197 247.868ZM107.281 230.424H122.429V232.3H107.281V230.424ZM114.869 233.784C118.397 233.784 120.833 235.632 120.833 238.46C120.833 241.316 118.397 243.136 114.869 243.136C111.341 243.136 108.933 241.316 108.933 238.46C108.933 235.632 111.341 233.784 114.869 233.784ZM114.869 235.576C112.601 235.576 111.117 236.724 111.117 238.46C111.117 240.196 112.601 241.344 114.869 241.344C117.137 241.344 118.649 240.196 118.649 238.46C118.649 236.724 117.137 235.576 114.869 235.576ZM113.721 227.4H116.045V231.684H113.721V227.4Z" fill="#6B6B6B"/>
<path d="M119.947 296.808C117.659 296.808 115.723 295.862 114.359 294.41L115.459 293.156C116.603 294.388 118.253 295.202 119.969 295.202C122.169 295.202 123.489 294.08 123.489 292.43C123.489 290.67 122.279 290.142 120.739 289.46L118.407 288.426C116.933 287.788 115.151 286.688 115.151 284.312C115.151 281.87 117.241 280.11 120.123 280.11C122.037 280.11 123.709 280.946 124.787 282.09L123.819 283.256C122.851 282.332 121.641 281.716 120.123 281.716C118.231 281.716 116.999 282.684 116.999 284.18C116.999 285.83 118.451 286.446 119.683 286.974L121.993 287.986C123.863 288.8 125.337 289.878 125.337 292.298C125.337 294.828 123.247 296.808 119.947 296.808ZM128.105 296.5V280.396H130.349L133.495 289.218C133.891 290.34 134.287 291.484 134.683 292.628H134.771C135.189 291.484 135.541 290.34 135.915 289.218L139.061 280.396H141.305V296.5H139.589V287.216C139.589 285.83 139.721 283.938 139.831 282.552H139.743L138.467 286.204L135.321 294.85H134.045L130.877 286.204L129.601 282.552H129.513C129.623 283.938 129.755 285.83 129.755 287.216V296.5H128.105ZM149.747 296.808C147.459 296.808 145.523 295.862 144.159 294.41L145.259 293.156C146.403 294.388 148.053 295.202 149.769 295.202C151.969 295.202 153.289 294.08 153.289 292.43C153.289 290.67 152.079 290.142 150.539 289.46L148.207 288.426C146.733 287.788 144.951 286.688 144.951 284.312C144.951 281.87 147.041 280.11 149.923 280.11C151.837 280.11 153.509 280.946 154.587 282.09L153.619 283.256C152.651 282.332 151.441 281.716 149.923 281.716C148.031 281.716 146.799 282.684 146.799 284.18C146.799 285.83 148.251 286.446 149.483 286.974L151.793 287.986C153.663 288.8 155.137 289.878 155.137 292.298C155.137 294.828 153.047 296.808 149.747 296.808ZM156.761 288.558H174.735V289.9H156.761V288.558ZM165.055 289.394H166.661V294.014H165.055V289.394ZM159.093 279.318H172.381V286.204H159.093V279.318ZM170.775 280.616H160.699V284.884H170.775V280.616ZM159.071 296.368H172.733V297.732H159.071V296.368ZM159.071 292.056H160.699V296.852H159.071V292.056ZM181.553 281.144H182.873V284.532C182.873 288.602 180.211 292.804 177.241 294.344L176.273 293.046C179.045 291.682 181.553 287.92 181.553 284.532V281.144ZM181.839 281.144H183.137V284.532C183.137 287.722 185.513 291.22 188.307 292.562L187.361 293.86C184.325 292.342 181.839 288.404 181.839 284.532V281.144ZM176.977 280.418H187.625V281.782H176.977V280.418ZM190.111 278.372H191.761V298.172H190.111V278.372ZM191.365 286.446H195.061V287.832H191.365V286.446Z" fill="#AAAAAA"/>
<path d="M203.838 287.624H204.726V294.272H203.838V287.624ZM196.458 292.832H197.31C199.254 292.832 200.706 292.772 202.458 292.496L202.566 293.228C200.754 293.516 199.29 293.576 197.31 293.576H196.458V292.832ZM196.422 288.308H201.318V291.224H197.322V293.252H196.458V290.528H200.454V289.04H196.422V288.308ZM201.186 294.512C203.43 294.512 204.798 295.22 204.798 296.444C204.798 297.68 203.43 298.388 201.186 298.388C198.93 298.388 197.574 297.68 197.574 296.444C197.574 295.22 198.93 294.512 201.186 294.512ZM201.186 295.232C199.494 295.232 198.45 295.688 198.45 296.444C198.45 297.224 199.494 297.68 201.186 297.68C202.878 297.68 203.91 297.224 203.91 296.444C203.91 295.688 202.878 295.232 201.186 295.232ZM207.869 288.74H214.733V289.472H207.869V288.74ZM206.693 296.132H216.461V296.876H206.693V296.132ZM214.361 288.74H215.225V290.072C215.225 291.668 215.225 293.132 214.769 295.316L213.881 295.232C214.361 293.168 214.361 291.644 214.361 290.072V288.74ZM214.577 291.728V292.4L207.725 292.772L207.581 292.028L214.577 291.728ZM218.752 288.14H225.724V288.86H218.752V288.14ZM225.124 288.14H226V288.944C226 289.844 226 290.912 225.676 292.364L224.8 292.256C225.124 290.84 225.124 289.832 225.124 288.944V288.14ZM225.376 289.964V290.6L218.608 290.912L218.488 290.192L225.376 289.964ZM217.504 292.076H227.248V292.796H217.504V292.076ZM218.656 293.888H226.084V296.348H219.556V297.86H218.68V295.664H225.208V294.584H218.656V293.888ZM218.68 297.56H226.468V298.268H218.68V297.56ZM236.235 287.612H237.123V294.212H236.235V287.612ZM229.935 294.824H237.123V298.412H236.235V295.556H229.935V294.824ZM228.855 292.844H229.707C231.651 292.844 233.103 292.772 234.855 292.496L234.963 293.228C233.151 293.516 231.687 293.576 229.707 293.576H228.855V292.844ZM228.819 288.26H233.715V291.188H229.719V293.204H228.855V290.492H232.851V288.992H228.819V288.26Z" fill="#808080"/>
<path d="M66.2566 268.758H67.6646V270.298C67.6646 274.61 63.4846 277.888 59.7446 278.768L59.0186 277.404C62.2966 276.766 66.2566 273.774 66.2566 270.298V268.758ZM66.5426 268.758H67.9506V270.298C67.9506 273.774 71.9326 276.766 75.2106 277.404L74.4626 278.768C70.7666 277.888 66.5426 274.61 66.5426 270.298V268.758ZM58.2046 283.102H76.1786V284.466H58.2046V283.102ZM79.1469 269.33H88.1889V282.156H79.1469V269.33ZM86.6049 270.65H80.7529V280.836H86.6049V270.65ZM92.5449 267.35H94.1729V287.194H92.5449V267.35ZM112.365 267.394H113.993V279.208H112.365V267.394ZM107.481 279.692C111.573 279.692 114.125 281.056 114.125 283.41C114.125 285.764 111.573 287.128 107.481 287.128C103.389 287.128 100.859 285.764 100.859 283.41C100.859 281.056 103.389 279.692 107.481 279.692ZM107.481 280.99C104.401 280.99 102.465 281.892 102.465 283.41C102.465 284.906 104.401 285.808 107.481 285.808C110.583 285.808 112.497 284.906 112.497 283.41C112.497 281.892 110.583 280.99 107.481 280.99ZM103.059 268.274H104.401V270.21C104.401 273.972 102.091 277.206 98.8571 278.482L98.0211 277.162C100.947 276.062 103.059 273.268 103.059 270.21V268.274ZM103.345 268.274H104.687V270.21C104.687 273.092 106.843 275.644 109.725 276.656L108.933 277.954C105.677 276.766 103.345 273.796 103.345 270.21V268.274Z" fill="#9C9C9C"/>
<path d="M62.5821 50.426H63.9141V52.964H62.5821V50.426ZM57.9021 42.92H59.2161V44.504H67.3341V42.92H68.6661V48.248H57.9021V42.92ZM59.2161 45.548V47.204H67.3341V45.548H59.2161ZM55.9401 49.652H70.5741V50.75H55.9401V49.652ZM57.7221 52.424H68.6841V55.934H59.0721V58.04H57.7761V54.962H67.3701V53.45H57.7221V52.424ZM57.7761 57.626H69.1881V58.688H57.7761V57.626ZM83.3527 42.65H84.6847V54.62H83.3527V42.65ZM84.2527 47.636H87.1147V48.752H84.2527V47.636ZM74.6587 57.392H85.4407V58.508H74.6587V57.392ZM74.6587 53.396H75.9907V57.824H74.6587V53.396ZM76.6567 43.82C79.0687 43.82 80.8507 45.458 80.8507 47.798C80.8507 50.12 79.0687 51.758 76.6567 51.758C74.2627 51.758 72.4807 50.12 72.4807 47.798C72.4807 45.458 74.2627 43.82 76.6567 43.82ZM76.6567 44.99C75.0187 44.99 73.7767 46.16 73.7767 47.798C73.7767 49.418 75.0187 50.588 76.6567 50.588C78.3127 50.588 79.5727 49.418 79.5727 47.798C79.5727 46.16 78.3127 44.99 76.6567 44.99ZM99.5513 42.668H100.883V51.884H99.5513V42.668ZM100.523 46.682H103.313V47.798H100.523V46.682ZM95.0873 43.73H96.5093C96.5093 47.78 93.6293 50.714 88.8773 52.01L88.3553 50.948C92.5853 49.778 95.0873 47.366 95.0873 44.288V43.73ZM89.0573 43.73H95.8253V44.81H89.0573V43.73ZM90.7313 52.658H100.883V58.634H90.7313V52.658ZM99.5693 53.756H92.0633V57.554H99.5693V53.756Z" fill="#7E7E7E"/>
<path d="M85.8388 15.748H87.1348V16.99C87.1348 20.536 83.8408 23.29 80.5828 24.028L79.9168 22.786C82.7788 22.246 85.8388 19.762 85.8388 16.99V15.748ZM86.1088 15.748H87.4048V16.99C87.4048 19.78 90.4828 22.246 93.3268 22.786L92.6608 24.028C89.4208 23.29 86.1088 20.554 86.1088 16.99V15.748ZM79.3228 27.484H94.0648V28.708H79.3228V27.484ZM97.4114 23.398H108.589V24.604H97.4114V23.398ZM95.5214 27.574H110.263V28.816H95.5214V27.574ZM97.4114 16.018H108.409V17.242H98.9234V23.776H97.4114V16.018ZM98.4374 19.654H108.067V20.842H98.4374V19.654ZM112.242 25.666H113.322C115.302 25.666 117.138 25.594 119.37 25.216L119.496 26.44C117.21 26.836 115.374 26.908 113.322 26.908H112.242V25.666ZM112.206 16.414H118.02V22.084H113.7V26.17H112.242V20.878H116.58V17.638H112.206V16.414ZM124.086 14.632H125.526V30.904H124.086V14.632ZM118.794 20.464H121.422V21.706H118.794V20.464ZM120.81 15.028H122.196V30.058H120.81V15.028ZM134.435 15.748H135.731V16.99C135.731 20.536 132.437 23.29 129.179 24.028L128.513 22.786C131.375 22.246 134.435 19.762 134.435 16.99V15.748ZM134.705 15.748H136.001V16.99C136.001 19.78 139.079 22.246 141.923 22.786L141.257 24.028C138.017 23.29 134.705 20.554 134.705 16.99V15.748ZM127.919 27.484H142.661V28.708H127.919V27.484Z" fill="#777777"/>
<path d="M171.254 61.236C174.638 61.236 177.062 63.324 177.062 66.348C177.062 69.396 174.638 71.484 171.254 71.484C167.87 71.484 165.422 69.396 165.422 66.348C165.422 63.324 167.87 61.236 171.254 61.236ZM171.254 62.964C168.998 62.964 167.366 64.332 167.366 66.348C167.366 68.364 168.998 69.756 171.254 69.756C173.486 69.756 175.118 68.364 175.118 66.348C175.118 64.332 173.486 62.964 171.254 62.964ZM179.894 59.652H181.886V81.396H179.894V59.652ZM164.606 76.644L164.318 74.988C168.278 74.988 173.75 74.964 178.478 74.22L178.646 75.684C173.774 76.62 168.47 76.644 164.606 76.644ZM191.292 72.396H193.26V77.724H191.292V72.396ZM198.228 72.348H200.172V77.7H198.228V72.348ZM185.82 77.052H205.476V78.708H185.82V77.052ZM188.196 61.284H203.052V67.836H190.236V72.204H188.268V66.252H201.084V62.892H188.196V61.284ZM188.268 71.316H203.556V72.948H188.268V71.316ZM223.21 59.676H225.202V81.372H223.21V59.676ZM216.85 62.004H218.818C218.818 68.292 215.986 73.788 208.738 77.34L207.682 75.732C213.946 72.708 216.85 68.1 216.85 62.34V62.004ZM208.666 62.004H217.714V63.636H208.666V62.004ZM228.992 71.604H248.672V73.236H228.992V71.604ZM231.488 60.228H246.128V65.484H233.504V68.412H231.536V64.02H244.184V61.788H231.488V60.228ZM231.536 67.764H246.608V69.324H231.536V67.764ZM237.824 68.58H239.816V72.42H237.824V68.58ZM231.176 74.892H246.272V81.18H244.28V76.524H231.176V74.892ZM257.902 69.516H272.926V71.148H257.902V69.516ZM255.502 76.932H275.158V78.588H255.502V76.932ZM264.31 70.524H266.278V77.46H264.31V70.524ZM257.902 61.5H259.894V70.236H257.902V61.5ZM285.884 70.476H287.876V73.764H285.884V70.476ZM277.1 69.3H296.684V70.836H277.1V69.3ZM285.908 59.532H287.876V62.172H285.908V59.532ZM285.812 62.364H287.564V62.7C287.564 66.108 283.508 67.932 278.708 68.34L278.132 66.804C282.404 66.54 285.812 65.028 285.812 62.7V62.364ZM286.22 62.364H287.972V62.7C287.972 65.028 291.38 66.54 295.628 66.804L295.052 68.34C290.252 67.932 286.22 66.108 286.22 62.7V62.364ZM279.092 61.572H294.692V63.084H279.092V61.572ZM279.452 72.804H294.188V77.58H281.468V80.196H279.5V76.164H292.22V74.316H279.452V72.804ZM279.5 79.62H294.836V81.132H279.5V79.62Z" fill="#2D2D2D"/>
<path d="M232.651 34.824C235.731 34.824 237.909 36.716 237.909 39.444C237.909 42.194 235.731 44.086 232.651 44.086C229.549 44.086 227.349 42.194 227.349 39.444C227.349 36.716 229.549 34.824 232.651 34.824ZM232.651 36.254C230.495 36.254 228.933 37.552 228.933 39.444C228.933 41.336 230.495 42.678 232.651 42.678C234.763 42.678 236.325 41.336 236.325 39.444C236.325 37.552 234.763 36.254 232.651 36.254ZM240.637 33.35H242.265V53.194H240.637V33.35ZM226.557 48.794L226.315 47.408C229.945 47.408 234.983 47.408 239.317 46.726L239.449 47.936C234.983 48.772 230.121 48.794 226.557 48.794ZM251.107 44.988H252.713V49.894H251.107V44.988ZM257.443 44.944H259.027V49.85H257.443V44.944ZM246.003 49.322H263.977V50.686H246.003V49.322ZM248.225 34.868H261.711V40.742H249.875V44.834H248.269V39.444H260.105V36.21H248.225V34.868ZM248.269 44.108H262.173V45.45H248.269V44.108ZM266.791 34.384H268.419V37.53H274.073V34.384H275.679V43.426H266.791V34.384ZM268.419 38.828V42.062H274.073V38.828H268.419ZM275.195 38.3H280.937V39.642H275.195V38.3ZM280.409 33.372H282.037V44.174H280.409V33.372ZM269.453 45.164H271.059V47.672H280.431V45.164H282.037V52.886H269.453V45.164ZM271.059 48.992V51.544H280.431V48.992H271.059Z" fill="#2D2D2D"/>
</svg>
