<svg width="31" height="31" viewBox="0 0 31 31" fill="none" xmlns="http://www.w3.org/2000/svg">
<mask id="mask0_66_30" style="mask-type:alpha" maskUnits="userSpaceOnUse" x="0" y="0" width="31" height="31">
<rect x="0.5" y="0.25" width="30" height="30" fill="#D9D9D9"/>
</mask>
<g mask="url(#mask0_66_30)">
<path d="M8.38469 28.375C7.76135 28.375 7.22885 28.1543 6.78719 27.7128C6.34573 27.2711 6.125 26.7386 6.125 26.1153V4.38469C6.125 3.76135 6.34573 3.22885 6.78719 2.78719C7.22885 2.34573 7.76135 2.125 8.38469 2.125H20.1153C20.7386 2.125 21.2711 2.34573 21.7128 2.78719C22.1543 3.22885 22.375 3.76135 22.375 4.38469V8.95188H20.5V7.4375H8V23.0625H20.5V21.5481H22.375V26.1153C22.375 26.7386 22.1543 27.2711 21.7128 27.7128C21.2711 28.1543 20.7386 28.375 20.1153 28.375H8.38469ZM8 24.9375V26.1153C8 26.2116 8.0401 26.2997 8.12031 26.3797C8.20031 26.4599 8.28844 26.5 8.38469 26.5H20.1153C20.2116 26.5 20.2997 26.4599 20.3797 26.3797C20.4599 26.2997 20.5 26.2116 20.5 26.1153V24.9375H8ZM19.1875 19.8172L14.3078 14.9375L15.625 13.6203L19.1875 17.1828L26.2741 10.0963L27.5913 11.4134L19.1875 19.8172ZM8 5.5625H20.5V4.38469C20.5 4.28844 20.4599 4.20031 20.3797 4.12031C20.2997 4.0401 20.2116 4 20.1153 4H8.38469C8.28844 4 8.20031 4.0401 8.12031 4.12031C8.0401 4.20031 8 4.28844 8 4.38469V5.5625Z" fill="#050505"/>
</g>
</svg>
