<svg width="31" height="31" viewBox="0 0 31 31" fill="none" xmlns="http://www.w3.org/2000/svg">
<mask id="mask0_66_96" style="mask-type:alpha" maskUnits="userSpaceOnUse" x="0" y="0" width="31" height="31">
<rect x="0.5" y="0.25" width="30" height="30" fill="#D9D9D9"/>
</mask>
<g mask="url(#mask0_66_96)">
<path d="M19.9472 16.9328H26.6056V12.5578H19.9472V16.9328ZM18.0722 20.9831V11.8125C18.0722 11.4904 18.1799 11.2216 18.3953 11.0059C18.6109 10.7905 18.8798 10.6828 19.2019 10.6828H27.3509C27.673 10.6828 27.9419 10.7905 28.1575 11.0059C28.3729 11.2216 28.4806 11.4904 28.4806 11.8125V17.6778C28.4806 17.9999 28.3729 18.2688 28.1575 18.4844C27.9419 18.7 27.673 18.8078 27.3509 18.8078H20.2475L18.0722 20.9831ZM9.63469 28.375C9.01135 28.375 8.47885 28.1543 8.03719 27.7128C7.59573 27.2711 7.375 26.7386 7.375 26.1153V4.38469C7.375 3.76135 7.59573 3.22885 8.03719 2.78719C8.47885 2.34573 9.01135 2.125 9.63469 2.125H21.3653C21.9886 2.125 22.5211 2.34573 22.9628 2.78719C23.4043 3.22885 23.625 3.76135 23.625 4.38469V8.95188H21.75V7.4375H9.25V23.0625H21.75V21.5481H23.625V26.1153C23.625 26.7386 23.4043 27.2711 22.9628 27.7128C22.5211 28.1543 21.9886 28.375 21.3653 28.375H9.63469ZM9.25 24.9375V26.1153C9.25 26.2116 9.2901 26.2997 9.37031 26.3797C9.45031 26.4599 9.53844 26.5 9.63469 26.5H21.3653C21.4616 26.5 21.5497 26.4599 21.6297 26.3797C21.7099 26.2997 21.75 26.2116 21.75 26.1153V24.9375H9.25ZM9.25 5.5625H21.75V4.38469C21.75 4.28844 21.7099 4.20031 21.6297 4.12031C21.5497 4.0401 21.4616 4 21.3653 4H9.63469C9.53844 4 9.45031 4.0401 9.37031 4.12031C9.2901 4.20031 9.25 4.28844 9.25 4.38469V5.5625Z" fill="#050505"/>
</g>
</svg>
