<svg width="60" height="44" viewBox="0 0 60 44" fill="none" xmlns="http://www.w3.org/2000/svg">
<mask id="mask0_43_46" style="mask-type:alpha" maskUnits="userSpaceOnUse" x="0" y="0" width="60" height="44">
<rect width="60" height="44" fill="#D9D9D9"/>
</mask>
<g mask="url(#mask0_43_46)">
<path d="M30 44L23.2759 36.0612H5.17241C3.67816 36.0612 2.44253 35.6799 1.46552 34.9174C0.488506 34.1549 0 33.1906 0 32.0245V4.0367C0 2.87054 0.488506 1.90622 1.46552 1.14373C2.44253 0.381244 3.67816 0 5.17241 0H54.8276C56.3218 0 57.5575 0.381244 58.5345 1.14373C59.5115 1.90622 60 2.87054 60 4.0367V32.0245C60 33.1906 59.5115 34.1549 58.5345 34.9174C57.5575 35.6799 56.3218 36.0612 54.8276 36.0612H36.7241L30 44Z" fill="#41D293"/>
<path d="M9.82 24.925V10.125H12.78V15.965H18.38V10.125H21.32V24.925H18.38V18.525H12.78V24.925H9.82ZM24.7167 24.925V13.745H27.6567V24.925H24.7167ZM26.1767 11.925C25.1567 11.925 24.4767 11.285 24.4767 10.305C24.4767 9.34505 25.1567 8.72505 26.1767 8.72505C27.1967 8.72505 27.8967 9.34505 27.8967 10.305C27.8967 11.285 27.1967 11.925 26.1767 11.925ZM30.7909 24.925V13.745H33.1709L33.4109 15.225H33.4709C34.4309 14.265 35.5909 13.465 37.1109 13.465C39.5109 13.465 40.5709 15.145 40.5709 17.945V24.925H37.6309V18.325C37.6309 16.565 37.1309 15.985 36.0509 15.985C35.1309 15.985 34.5509 16.425 33.7309 17.225V24.925H30.7909ZM47.6834 25.205C45.0234 25.205 44.0034 23.525 44.0034 21.025V16.045H42.4434V13.865L44.1834 13.745L44.5034 10.705H46.9434V13.745H49.7234V16.045H46.9434V21.025C46.9434 22.305 47.4834 22.905 48.4634 22.905C48.8434 22.905 49.2634 22.765 49.5834 22.645L50.0634 24.785C49.4634 24.985 48.6834 25.205 47.6834 25.205Z" fill="white"/>
</g>
</svg>
